<?xml version="1.0" encoding="utf-8"?>
<!-- Generator: Adobe Illustrator 16.0.4, SVG Export Plug-In . SVG Version: 6.00 Build 0)  -->
<!DOCTYPE svg PUBLIC "-//W3C//DTD SVG 1.1//EN" "http://www.w3.org/Graphics/SVG/1.1/DTD/svg11.dtd">
<svg version="1.1" id="Layer_1" xmlns="http://www.w3.org/2000/svg" xmlns:xlink="http://www.w3.org/1999/xlink" x="0px" y="0px"
	 width="319.45px" height="126.952px" viewBox="0 0 319.45 126.952" enable-background="new 0 0 319.45 126.952"
	 xml:space="preserve">
<path fill="#ED1C24" d="M51.959,0H34.935C18.215,0,4.029,12.731,4.029,37.445c0,14.827,6.871,25.76,19.11,31.152l-22.84,41.339
	c-0.747,1.349,0,2.395,1.19,2.395H12.09c0.896,0,1.494-0.299,1.792-1.046l20.753-40.592h7.469v40.592
	c0,0.448,0.448,1.046,1.041,1.046h9.262c0.896,0,1.195-0.448,1.195-1.194V1.499C53.603,0.448,53.005,0,51.959,0z M42.105,61.11
	h-6.274c-9.854,0-19.41-7.189-19.41-25.163c0-18.725,8.958-26.362,18.065-26.362h7.618V61.11z"/>
<path fill="#FFFFFF" d="M108.082,37.238h-9.257c-0.747,0-1.195,0.598-1.195,1.045v28.608H80.457V38.284
	c0-0.747-0.294-1.045-1.041-1.045h-9.262c-0.742,0-1.19,0.448-1.19,1.045v72.795c0,0.747,0.299,1.195,1.041,1.195h9.411
	c0.597,0,1.041-0.448,1.041-1.195V76.332H97.63v34.747c0,0.747,0.448,1.195,1.195,1.195h9.257c0.747,0,1.045-0.598,1.045-1.195
	V38.284C109.127,37.687,108.679,37.238,108.082,37.238z"/>
<path fill="#FFFFFF" d="M319.45,107.484l-1.195-5.093c-0.145-0.448-0.295-0.597-0.742-0.597c-0.746,0-4.779,1.643-10.602,1.643
	c-11.348,0-16.875-10.929-16.875-28.305c0-15.28,4.631-30.405,12.395-30.405c2.092,0,4.631,0.597,8.658,4.346
	c0.449,0.448,0.748,0.598,1.195,0.598c0.449,0,0.896-0.304,1.346-1.051l4.033-6.587c0.297-0.453,0.447-0.906,0.447-1.354
	c0-0.598-0.598-1.045-1.494-1.494c-6.125-3.146-10.303-3.744-13.887-3.744c-14.037,0-24.938,16.773-24.938,42.982
	c0,22.619,10.453,35.648,25.385,35.648c6.275,0,12.992-2.992,15.68-4.943C319.45,108.679,319.599,108.082,319.45,107.484z"/>
<path fill="#FFFFFF" d="M254.558,71.084l17.916-32.801c0.299-0.448,0.148-1.045-0.449-1.045h-8.809
	c-2.539,0-3.436,0.896-4.326,2.843l-13.443,28.011c-0.742,1.648-1.49,2.694-2.236,3.146V38.284c0-0.597-0.299-1.045-0.896-1.045
	h-9.705c-0.447,0-0.896,0.448-0.896,1.045v72.944c0,0.448,0.299,1.046,0.896,1.046h9.705c0.598,0,0.896-0.448,0.896-1.046V73.633
	c0.447,0.299,0.746,0.747,1.045,1.349l17.02,35.045c0.896,1.798,2.24,2.246,4.184,2.246h9.555c0.598,0,0.746-0.598,0.447-1.046
	L254.558,71.084z"/>
<path fill="#FFFFFF" d="M169.004,102.839h-1.793c-2.24,0-2.838-0.896-2.838-2.693V38.284c0-0.747-0.299-1.045-0.896-1.045h-29.86
	c-0.748,0-1.195,0.448-1.195,1.045v5.392c0,18.123-1.046,41.488-10.601,59.163h-3.287c-0.896,0-1.195,0.453-1.195,1.2
	c0,0,0,17.974,0,21.867c0,0.751,0.598,1.046,1.045,1.046h7.17c1.638,0,2.236-1.195,2.236-2.246v-12.432h31.957v13.632
	c0,0.597,0.443,1.046,1.041,1.046h7.618c0.892,0,1.787-0.747,1.787-2.246v-20.667C170.193,103.292,169.746,102.839,169.004,102.839z
	 M152.876,102.839h-21.65c7.618-13.029,10.602-27.707,11.646-45.68c0.299-3.894,0.448-7.941,0.448-10.485h9.556V102.839z"/>
<path fill="#FFFFFF" d="M199.462,35.441c-16.123,0-23.293,20.368-23.293,42.534c0,22.618,10.152,36.096,25.086,36.096
	c7.314,0,13.737-2.843,17.019-4.943c0.598-0.299,0.747-0.747,0.598-1.345l-1.194-5.093c-0.149-0.597-0.448-0.896-1.195-0.896
	c-0.593,0-4.925,1.643-11.049,1.643c-11.497,0-16.87-10.032-16.87-23.211c0-1.802,0-3.546,0-3.546s5.82,0.699,9.257,0.699h21.799
	v-6.293C219.618,47.873,211.402,35.441,199.462,35.441z M197.819,67.942c-3.437,0-8.809,0.598-8.809,0.598s0-2.246,0.299-4.645
	c1.339-12.731,4.477-19.168,9.704-19.168c4.78,0,7.763,6.587,8.51,18.123c0.149,2.395,0.149,5.093,0.149,5.093H197.819z"/>
</svg>
